<svg width="16" height="16" viewBox="0 0 16 16" fill="none" xmlns="http://www.w3.org/2000/svg">
<path fill-rule="evenodd" clip-rule="evenodd" d="M14 3.66667C14 4.03486 13.7015 4.33333 13.3333 4.33333H2.66667C2.29848 4.33333 2 4.03486 2 3.66667C2 3.29848 2.29848 3 2.66667 3H13.3333C13.7015 3 14 3.29848 14 3.66667ZM14 8C14 8.36819 13.7015 8.66667 13.3333 8.66667L8 8.66667C7.63181 8.66667 7.33333 8.36819 7.33333 8C7.33333 7.63181 7.63181 7.33333 8 7.33333L13.3333 7.33333C13.7015 7.33333 14 7.63181 14 8ZM2 12.3333C2 12.7015 2.29848 13 2.66667 13L13.3333 13C13.7015 13 14 12.7015 14 12.3333C14 11.9651 13.7015 11.6667 13.3333 11.6667L2.66667 11.6667C2.29848 11.6667 2 11.9651 2 12.3333ZM4.70533 5.9995C4.92712 5.85599 5.21975 6.01519 5.21975 6.27936V9.5834C5.21975 9.84757 4.92712 10.0068 4.70533 9.86326L2.15225 8.21123C1.94925 8.07988 1.94925 7.78288 2.15225 7.65152L4.70533 5.9995Z" fill="#86909C"/>
</svg>
