<svg width="16" height="16" viewBox="0 0 16 16" fill="none" xmlns="http://www.w3.org/2000/svg">
<path fill-rule="evenodd" clip-rule="evenodd" d="M14 3.66667C14 4.03486 13.7015 4.33333 13.3333 4.33333H2.66667C2.29848 4.33333 2 4.03486 2 3.66667C2 3.29848 2.29848 3 2.66667 3H13.3333C13.7015 3 14 3.29848 14 3.66667ZM14 8C14 8.36819 13.7015 8.66667 13.3333 8.66667L8 8.66667C7.63181 8.66667 7.33333 8.36819 7.33333 8C7.33333 7.63181 7.63181 7.33333 8 7.33333L13.3333 7.33333C13.7015 7.33333 14 7.63181 14 8ZM2 12.3333C2 12.7015 2.29848 13 2.66667 13L13.3333 13C13.7015 13 14 12.7015 14 12.3333C14 11.9651 13.7015 11.6667 13.3333 11.6667L2.66667 11.6667C2.29848 11.6667 2 11.9651 2 12.3333ZM2.51442 9.91728C2.29263 10.0608 2 9.9016 2 9.63743V6.33338C2 6.06921 2.29263 5.91001 2.51442 6.05353L5.0675 7.70555C5.2705 7.8369 5.2705 8.13391 5.0675 8.26526L2.51442 9.91728Z" fill="#86909C"/>
</svg>
