<svg width="20" height="20" viewBox="0 0 20 20" fill="none" xmlns="http://www.w3.org/2000/svg">
<rect width="20" height="20" fill="#D9D9D9" fill-opacity="0.01"/>
<path fill-rule="evenodd" clip-rule="evenodd" d="M9.0459 3.9598C9.61219 3.53944 10.3878 3.53944 10.9541 3.9598L15.9541 7.67171C16.3605 7.97352 16.5995 8.45067 16.5996 8.95687V14.9989C16.5996 15.8825 15.8837 16.5985 15 16.5985H5C4.11634 16.5985 3.40039 15.8825 3.40039 14.9989V8.95687C3.40046 8.45067 3.63951 7.97352 4.0459 7.67171L9.0459 3.9598ZM8.5 12.8993C8.1687 12.8993 7.90051 13.1676 7.90039 13.4989C7.90039 13.8302 8.16863 14.0985 8.5 14.0985H11.5C11.8314 14.0985 12.0996 13.8302 12.0996 13.4989C12.0995 13.1676 11.8313 12.8993 11.5 12.8993H8.5Z" fill="#C9CDD4"/>
</svg>
